<svg t="1620968946369" class="icon" viewBox="0 0 1024 1024" version="1.1" xmlns="http://www.w3.org/2000/svg" p-id="3384" width="20" height="20"><path d="M708.367 353.656c0-56.745-22.729-110.092-63.996-150.218s-96.132-62.224-154.494-62.224-113.229 22.099-154.498 62.224-63.996 93.473-63.996 150.218c0 43.987 13.713 86.196 39.651 122.064 7.273 10.060 21.559 12.479 31.904 5.406 10.343-7.073 12.834-20.963 5.561-31.019-20.486-28.329-31.315-61.684-31.315-96.451 0-92.585 77.471-167.911 172.694-167.911s172.689 75.325 172.689 167.911-77.471 167.906-172.694 167.906c-47.055 0-92.711 8.965-135.702 26.646-41.516 17.076-78.796 41.509-110.806 72.632-32.007 31.123-57.142 67.371-74.705 107.736-18.181 41.808-27.401 86.199-27.401 131.948 0 12.298 10.252 22.266 22.898 22.266s22.898-9.968 22.898-22.266c0-162.35 135.843-294.425 302.816-294.425 58.361 0 113.229-22.099 154.497-62.22s63.996-93.477 63.996-150.221zM530.991 631.551c0 12.298 10.252 22.266 22.898 22.266h304.337c12.647 0 22.898-9.968 22.898-22.266s-10.252-22.266-22.898-22.266h-304.337c-12.647 0-22.898 9.968-22.898 22.266zM858.229 722.671h-304.337c-12.65 0-22.898 9.968-22.898 22.266s10.252 22.266 22.898 22.266h304.337c12.647 0 22.898-9.968 22.898-22.266 0-12.294-10.252-22.266-22.898-22.266zM858.229 836.056h-304.337c-12.65 0-22.898 9.967-22.898 22.266s10.252 22.266 22.898 22.266h304.337c12.647 0 22.898-9.968 22.898-22.266 0-12.294-10.252-22.266-22.898-22.266z" fill="#ffffff" p-id="3385"></path></svg>