  <svg t="1620968597943" class="icon" viewBox="0 0 1024 1024" version="1.1" xmlns="http://www.w3.org/2000/svg"
    p-id="1179" width="20" height="20" fill="white">
    <path
      d="M761.056 532.128c0.512-0.992 1.344-1.824 1.792-2.848 8.8-18.304 5.92-40.704-9.664-55.424L399.936 139.744c-19.264-18.208-49.632-17.344-67.872 1.888-18.208 19.264-17.376 49.632 1.888 67.872l316.96 299.84L335.2 813.632c-19.072 18.4-19.648 48.768-1.248 67.872 9.408 9.792 21.984 14.688 34.56 14.688 12 0 24-4.48 33.312-13.44l350.048-337.376c0.672-0.672 0.928-1.6 1.6-2.304 0.512-0.48 1.056-0.832 1.568-1.344 2.72-2.848 4.16-6.336 6.016-9.6z"
      p-id="1180"></path>
  </svg>